<svg clip-rule="evenodd" fill-rule="evenodd" stroke-linejoin="round" stroke-miterlimit="2" viewBox="0 0 48 48" xmlns="http://www.w3.org/2000/svg"><path id="path810" d="m19 3c-2.417 0-4.436 1.719-4.9 4h-1.6c-1.38 0-2.5 1.12-2.5 2.5v.5h-4c-1.657 0-3 1.343-3 3v29c0 1.657 1.343 3 3 3h20c.552 0 1-.448 1-1s-.448-1-1-1h-20c-.552 0-1-.448-1-1v-29c0-.552.448-1 1-1h4v.5c0 1.38 1.12 2.5 2.5 2.5h13c1.38 0 2.5-1.12 2.5-2.5v-.5h4c.265 0 .52.105.707.293.188.187.293.442.293.707v9c0 .552.448 1 1 1s1-.448 1-1v-9c0-.796-.316-1.559-.879-2.121-.562-.563-1.325-.879-2.121-.879h-4v-.5c0-1.38-1.12-2.5-2.5-2.5h-1.6c-.464-2.281-2.483-4-4.9-4zm0 2c1.656 0 3 1.344 3 3 0 .552.448 1 1 1h2.5c.276 0 .5.224.5.5v3c0 .276-.224.5-.5.5h-13c-.276 0-.5-.224-.5-.5v-3c0-.276.224-.5.5-.5h2.5c.552 0 1-.448 1-1 0-1.656 1.344-3 3-3zm-11 13c-.553 0-1 .448-1 1s.447 1 1 1h22c.552 0 1-.448 1-1s-.448-1-1-1zm0 4c-.553 0-1 .448-1 1s.447 1 1 1h22c.552 0 1-.448 1-1s-.448-1-1-1zm27 3c-5.519 0-10 4.481-10 10s4.481 10 10 10 10-4.481 10-10-4.481-10-10-10zm-27 1c-.553 0-1 .448-1 1s.447 1 1 1h17c.553 0 1-.448 1-1s-.447-1-1-1zm27 1c4.415 0 8 3.585 8 8s-3.585 8-8 8-8-3.585-8-8 3.585-8 8-8zm0 1c-.552 0-1 .448-1 1v1c-1.105 0-2 .895-2 2v2c0 1.105.895 2 2 2h2v2h-3c-.552 0-1 .448-1 1s.448 1 1 1h1v1c0 .552.448 1 1 1s1-.448 1-1v-1c1.105 0 2-.895 2-2v-2c0-1.105-.895-2-2-2h-2v-2h3c.552 0 1-.448 1-1s-.448-1-1-1h-1v-1c0-.552-.448-1-1-1zm-27 2c-.553 0-1 .448-1 1s.447 1 1 1h15c.552 0 1-.448 1-1s-.448-1-1-1zm0 4c-.552 0-1 .448-1 1s.448 1 1 1h14c.552 0 1-.448 1-1s-.448-1-1-1zm0 4c-.552 0-1 .448-1 1s.448 1 1 1h15c.552 0 1-.448 1-1s-.448-1-1-1z"/></svg>