<svg clip-rule="evenodd" fill-rule="evenodd" stroke-linejoin="round" stroke-miterlimit="2" viewBox="0 0 48 48" xmlns="http://www.w3.org/2000/svg"><path id="path4" d="m17.152 3.004c-.684.024-1.252.262-1.654.664-.585.585-.82 1.519-.561 2.656.283 1.239 1.176 2.793 2.561 4.178s2.941 2.278 4.18 2.561c.481.109.924.13 1.322.074v3.092c-.812-.671-1.855-1.202-3.088-1.227-1.152-.024-2.508.389-3.998 1.689-.52-.431-1.187-.691-1.914-.691-1.656 0-3 1.344-3 3s1.344 3 3 3 3-1.344 3-3c0-.187-.018-.369-.051-.547 1.107-1.056 2.072-1.47 2.922-1.453.785.016 1.431.402 1.934.836.606.523 1.013 1.129 1.195 1.43v2.865c-.92.252-1.952.849-2.971 1.674-2.776 2.247-5.544 5.963-5.758 6.252-.474.325-.948.726-1.382 1.209-.551-.669-1.386-1.096-2.319-1.096h-.57c-1.656 0-3 1.344-3 3v8.83c0 1.656 1.344 2.998 3 2.998h.57c1.174 0 2.189-.676 2.682-1.658l1.676 1.14c.497.339 1.087.518 1.689.518h10.813c.207 0 .41-.064.58-.185l11.842-8.448c.038-.027.076-.055.109-.088 1.316-1.249 1.389-3.353.166-4.695-1.208-1.325-3.221-1.431-4.555-.266 0 0-.564.309-.635.348-.034-.097-.081-.191-.148-.277 0 0-3.422-4.398-6.582-7.11-1.132-.971-2.255-1.71-3.207-2.058v-2.953c.182-.301.589-.907 1.195-1.43.503-.434 1.149-.82 1.934-.836.85-.017 1.815.397 2.922 1.453-.033.178-.051.36-.051.547 0 1.656 1.344 3 3 3s3-1.344 3-3-1.344-3-3-3c-.727 0-1.394.26-1.914.691-1.49-1.3-2.846-1.713-3.998-1.689-1.233.025-2.276.556-3.088 1.227v-3.092c.398.056.841.035 1.322-.074 1.239-.283 2.795-1.176 4.18-2.561s2.278-2.939 2.561-4.178c.259-1.137.024-2.071-.561-2.656s-1.519-.82-2.656-.561c-1.239.283-2.793 1.176-4.178 2.561-.679.679-1.239 1.4-1.668 2.103-.429-.703-.989-1.424-1.668-2.103-1.385-1.385-2.939-2.278-4.178-2.561-.355-.081-.691-.114-1.002-.103zm.153 1.996c.126.004.261.024.404.057.96.219 2.137.953 3.209 2.025s1.806 2.249 2.025 3.209c.043.19.066.369.055.529-.007.106-.016.204-.08.268s-.162.073-.268.08c-.16.01-.339-.012-.529-.055-.96-.219-2.135-.953-3.207-2.025s-1.808-2.249-2.027-3.209c-.043-.19-.065-.369-.055-.529.007-.106.018-.204.082-.268s.16-.073.266-.08c.04-.003.082-.003.125-.002zm13.39 0c.043-.001.083-.001.123.002.106.007.204.016.268.08s.073.162.08.268c.011.16-.01.339-.053.529-.219.96-.955 2.137-2.027 3.209s-2.247 1.806-3.207 2.025c-.19.043-.369.065-.529.055-.106-.007-.204-.016-.268-.08s-.073-.162-.08-.268c-.011-.16.012-.339.055-.529.219-.96.953-2.137 2.025-3.209s2.249-1.806 3.209-2.025c.143-.033.278-.053.404-.057zm-16.695 13c.552 0 1 .448 1 1s-.448 1-1 1-1-.448-1-1 .448-1 1-1zm20 0c.552 0 1 .448 1 1s-.448 1-1 1-1-.448-1-1 .448-1 1-1zm-10.189 5.996c.041-.002.082-.001.123.002.805.053 1.846.832 2.97 1.797 3.028 2.598 6.3 6.81 6.305 6.816-2.867 1.57-8.322 4.557-8.322 4.557h-4.887c-.4 0-.715-.342-.715-.75 0-.355.301-.75.715-.75h4c1.807 0 3.285-1.487 3.285-3.332s-1.478-3.332-3.285-3.332h-6.322c1.013-1.188 2.314-2.595 3.611-3.645.538-.436 1.072-.807 1.58-1.06.337-.167.652-.289.942-.303zm-6.731 7.008h6.92c.715 0 1.285.602 1.285 1.332s-.57 1.334-1.285 1.334h-4c-1.548 0-2.714 1.427-2.715 2.748 0 1.524 1.222 2.75 2.715 2.75h5.143c.168 0 .332-.043.48-.123l11.016-6.031c.075-.042.146-.093.209-.153.515-.488 1.321-.457 1.8.069.48.527.469 1.343-.019 1.851-.003.004-11.52 8.219-11.52 8.219h-10.492c-.201 0-.398-.061-.564-.174l-2.483-1.689v-7.385c.492-.922 1.162-1.626 1.826-2.09.106-.045.205-.107.292-.189.515-.308 1.01-.469 1.392-.469zm-7.08 1.166h.57c.552 0 1 .448 1 1v8.83c0 .552-.448 1-1 1h-.57c-.552 0-1-.448-1-1v-8.83c0-.552.448-1 1-1z"/></svg>