<svg clip-rule="evenodd" fill-rule="evenodd" stroke-linejoin="round" stroke-miterlimit="2" viewBox="0 0 48 48" xmlns="http://www.w3.org/2000/svg"><path id="path824" d="m28 3c-9.382 0-17 7.618-17 17 0 3.609 1.13 6.954 3.051 9.707l-10.172 10.172c-1.172 1.171-1.171 3.071 0 4.242s3.071 1.172 4.242 0l10.174-10.172c2.753 1.92 6.097 3.051 9.705 3.051 9.382 0 17-7.618 17-17s-7.618-17-17-17zm0 2c8.278 0 15 6.722 15 15s-6.722 15-15 15-15-6.722-15-15 6.722-15 15-15zm0 2c-7.175 0-13 5.825-13 13 0 3.264 1.21 6.245 3.199 8.529.031.041.063.082.1.117 2.381 2.67 5.845 4.354 9.701 4.354 3.859 0 7.325-1.686 9.707-4.359.034-.035.065-.073.094-.112 1.989-2.284 3.199-5.265 3.199-8.529 0-7.175-5.825-13-13-13zm0 2c6.071 0 11 4.929 11 11 0 1.929-.499 3.743-1.373 5.32-1.002-3.325-3.773-5.092-5.291-5.836.421-.732.664-1.581.664-2.486 0-2.76-2.24-5-5-5s-5 2.24-5 5c0 .905.243 1.754.664 2.486-1.518.744-4.289 2.511-5.291 5.836-.874-1.577-1.373-3.391-1.373-5.32 0-6.071 4.929-11 11-11zm0 4.998c1.656 0 3 1.344 3 3s-1.344 3-3 3-3-1.344-3-3 1.344-3 3-3zm-2.939 7.045c.825.601 1.841.955 2.939.955 1.099 0 2.114-.354 2.939-.955 1.011.397 4.837 2.182 5.051 6.512-2.006 2.12-4.844 3.445-7.99 3.445s-5.984-1.325-7.99-3.445c.214-4.33 4.04-6.115 5.051-6.512zm-9.764 10.246c.443.499.917.969 1.416 1.412l-10.006 10.006c-.39.39-1.024.39-1.414 0s-.39-1.024 0-1.414z"/></svg>