<svg clip-rule="evenodd" fill-rule="evenodd" stroke-linejoin="round" stroke-miterlimit="2" viewBox="0 0 48 48" xmlns="http://www.w3.org/2000/svg"><path id="path1210" d="m9 3c-.552 0-1 .448-1 1v9c0 3.523 2.61 6.441 6 6.928v11.246c-1.165.412-2 1.521-2 2.826v8c0 1.656 1.344 3 3 3s3-1.344 3-3v-8c0-1.305-.835-2.414-2-2.826v-11.246c3.39-.487 6-3.405 6-6.928v-9c0-.552-.448-1-1-1s-1 .448-1 1v9c0 2.418-1.718 4.437-4 4.9v-13.9c0-.551-.448-.998-1-.998s-1 .447-1 .998v13.9c-2.282-.463-4-2.482-4-4.9v-9c0-.552-.448-1-1-1zm23 0c-1.656 0-3 1.346-3 3v19.002c0 1.304.835 2.414 2 2.826v3.172h-5s-1 .001-1 1.006v4.994c0 6.841 6.836 7.986 6.836 7.986.108.019.22.019.328 0 0 0 6.836-1.145 6.836-7.986v-5.004c-.001-.265-.039-.393-.098-.426-.16-.338-.503-.57-.902-.57h-5v-3.172c1.165-.412 2-1.522 2-2.826v-19.002c0-1.654-1.344-3-3-3zm0 2.002c.552 0 1 .448 1 .998v19.002c0 .55-.448.998-1 .998s-1-.448-1-.998v-19.002c0-.55.448-.998 1-.998zm-17 27.998c.552 0 1 .448 1 1v8c0 .552-.448 1-1 1s-1-.448-1-1v-8c0-.552.448-1 1-1zm12 0h4v4c0 .552.448 1 1 1s1-.448 1-1v-4h4v4c0 4.605-4.114 5.781-4.998 5.98-.884-.199-5.002-1.374-5.002-5.98z"/></svg>