<svg clip-rule="evenodd" fill-rule="evenodd" stroke-linejoin="round" stroke-miterlimit="2" viewBox="0 0 32 32" xmlns="http://www.w3.org/2000/svg"><path id="path148" d="m7 2c-.552 0-1 .448-1 1v1h-1c-1.656 0-3 1.344-3 3v20c0 1.656 1.344 3 3 3h9c.552 0 1-.448 1-1s-.448-1-1-1h-9c-.552 0-1-.448-1-1v-16h24v3c0 .552.448 1 1 1s1-.448 1-1v-7c0-1.656-1.344-3-3-3h-1v-1c0-.552-.448-1-1-1s-1 .448-1 1v1h-7v-1c0-.552-.448-1-1-1s-1 .448-1 1v1h-7v-1c0-.552-.448-1-1-1zm-2 4h1v1c0 .552.448 1 1 1s1-.448 1-1v-1h7v1c0 .552.448 1 1 1s1-.448 1-1v-1h7v1c0 .552.448 1 1 1s1-.448 1-1v-1h1c.552 0 1 .448 1 1v2h-24v-2c0-.552.448-1 1-1zm17 8c-.017 0-.034.001-.051.002-4.392.027-7.949 3.6-7.949 7.998 0 .017.001.034.002.051.027 4.392 3.6 7.949 7.998 7.949s7.971-3.557 7.998-7.949c.001-.017.002-.034.002-.051s-.001-.034-.002-.051c-.027-4.375-3.572-7.92-7.947-7.947-.017-.001-.034-.002-.051-.002zm-1 2.086v.914c0 .552.448 1 1 1s1-.448 1-1v-.914c2.511.422 4.492 2.403 4.914 4.914h-.914c-.552 0-1 .448-1 1s.448 1 1 1h.914c-.422 2.511-2.403 4.492-4.914 4.914v-.914c0-.552-.448-1-1-1s-1 .448-1 1v.914c-2.511-.422-4.492-2.403-4.914-4.914h.914c.552 0 1-.448 1-1s-.448-1-1-1h-.914c.422-2.511 2.403-4.492 4.914-4.914zm1 2.914c-.552 0-1 .448-1 1v2c0 .552.448 1 1 1h2c.552 0 1-.448 1-1s-.448-1-1-1h-1v-1c0-.552-.448-1-1-1z"/></svg>